<svg width="190" height="24" viewBox="0 0 190 24" fill="none" xmlns="http://www.w3.org/2000/svg">
<g clip-path="url(#clip0_10078_2254)">
<path d="M37.0316 8.39336H40.3867V9.84451C40.7186 9.33148 41.1659 8.92838 41.7287 8.63522C42.2915 8.3274 42.9553 8.1735 43.7201 8.1735C44.9467 8.1735 45.9496 8.58392 46.7289 9.40477C47.5226 10.211 47.9194 11.4422 47.9194 13.0986V19.8266H44.5643V13.6922C44.5643 12.9447 44.3839 12.3437 44.0232 11.8893C43.6624 11.4349 43.1429 11.2077 42.4647 11.2077C41.8009 11.2077 41.2886 11.4422 40.9278 11.9113C40.5671 12.3657 40.3867 12.9593 40.3867 13.6922V19.8266H37.0316V8.39336Z" fill="white"/>
<path d="M49.9472 8.39336H53.3022V19.8266H49.9472V8.39336ZM49.9472 4.21583H53.3022V7.18408H49.9472V4.21583Z" fill="white"/>
<path d="M60.0562 19.9585C58.9595 19.9585 58.0864 19.6654 57.4371 19.0791C56.7877 18.4781 56.463 17.5546 56.463 16.3087V11.0978H54.7963V8.39336H56.463V5.46909H59.8181V8.39336H62.1775V11.0978H59.8181V15.759C59.8181 16.0962 59.9263 16.382 60.1428 16.6165C60.3592 16.8364 60.6983 16.9463 61.1601 16.9463C61.5064 16.9463 61.86 16.8877 62.2208 16.7704V19.3649C62.0187 19.5701 61.7157 19.724 61.3116 19.8266C60.922 19.9146 60.5035 19.9585 60.0562 19.9585Z" fill="white"/>
<path d="M63.7716 8.39336H67.1267V19.8266H63.7716V8.39336ZM63.7716 4.21583H67.1267V7.18408H63.7716V4.21583Z" fill="white"/>
<path d="M73.9889 20.0465C73.0942 20.0465 72.2356 19.8193 71.4131 19.3649C70.5905 18.9105 69.9195 18.2362 69.4 17.3421C68.8805 16.4479 68.6208 15.3706 68.6208 14.11C68.6208 12.8494 68.8805 11.772 69.4 10.8779C69.9195 9.98376 70.5905 9.30949 71.4131 8.85509C72.2356 8.40069 73.0942 8.1735 73.9889 8.1735C74.595 8.1735 75.1361 8.26877 75.6123 8.45933C76.103 8.63522 76.4926 8.84043 76.7812 9.07496C77.0698 9.30949 77.2502 9.5147 77.3223 9.6906H77.3873V8.39336H80.7423V19.8266H77.3873V18.5294H77.3223C77.2502 18.7053 77.0698 18.9105 76.7812 19.145C76.4926 19.3795 76.103 19.5921 75.6123 19.7826C75.1361 19.9585 74.595 20.0465 73.9889 20.0465ZM71.9326 14.11C71.9326 14.9895 72.1995 15.6931 72.7334 16.2207C73.2818 16.7484 73.9312 17.0123 74.6816 17.0123C75.4608 17.0123 76.1174 16.7558 76.6513 16.2427C77.1997 15.715 77.4738 15.0041 77.4738 14.11C77.4738 13.2159 77.1997 12.5123 76.6513 11.9992C76.1174 11.4715 75.4608 11.2077 74.6816 11.2077C73.9312 11.2077 73.2818 11.4715 72.7334 11.9992C72.1995 12.5269 71.9326 13.2305 71.9326 14.11Z" fill="white"/>
<path d="M31.5779 8.39335H34.933V19.8266H31.5779V8.39335ZM31.5779 4.21582H34.933V7.18407H31.5779V4.21582Z" fill="white"/>
<path d="M185.543 20.0423C184.441 20.0423 183.518 19.7712 182.774 19.2288C182.044 18.6865 181.587 17.9463 181.401 17.0083L182.634 16.6785C182.82 17.382 183.169 17.9243 183.681 18.3054C184.193 18.6865 184.814 18.8771 185.543 18.8771C186.256 18.8771 186.869 18.7085 187.381 18.3714C187.893 18.0196 188.149 17.5066 188.149 16.8324C188.149 16.2901 187.963 15.8577 187.59 15.5352C187.218 15.1981 186.597 14.8536 185.729 14.5019L184.798 14.1501C182.921 13.4319 181.982 12.3912 181.982 11.0281C181.982 10.1926 182.316 9.51106 182.983 8.9834C183.65 8.44108 184.488 8.16992 185.496 8.16992C186.396 8.16992 187.164 8.38978 187.8 8.8295C188.451 9.25456 188.886 9.83352 189.103 10.5664L187.963 10.9182C187.528 9.84818 186.722 9.31319 185.543 9.31319C184.922 9.31319 184.402 9.46709 183.984 9.77489C183.58 10.068 183.379 10.4858 183.379 11.0281C183.379 11.4678 183.534 11.8562 183.844 12.1933C184.154 12.5305 184.658 12.8309 185.356 13.0948L186.171 13.4026C187.35 13.8569 188.211 14.326 188.754 14.8097C189.297 15.2934 189.568 15.9676 189.568 16.8324C189.568 17.873 189.173 18.6719 188.381 19.2288C187.59 19.7712 186.644 20.0423 185.543 20.0423Z" fill="white"/>
<path d="M175.565 20.042C174.524 20.042 173.564 19.8074 172.684 19.3383C171.804 18.8692 171.093 18.1874 170.551 17.2931C170.023 16.3842 169.759 15.314 169.759 14.0825C169.759 12.8657 170.023 11.8101 170.551 10.9158C171.079 10.0215 171.775 9.33983 172.64 8.8707C173.505 8.40156 174.429 8.16699 175.411 8.16699C176.349 8.16699 177.236 8.3869 178.072 8.82672C178.907 9.25187 179.582 9.89693 180.095 10.7619C180.623 11.6122 180.887 12.6458 180.887 13.8626C180.887 14.1851 180.879 14.427 180.865 14.5883H171.035C171.108 15.4826 171.357 16.2523 171.782 16.8973C172.222 17.5424 172.787 18.0335 173.476 18.3707C174.165 18.6932 174.912 18.8545 175.719 18.8545C176.452 18.8545 177.133 18.7225 177.764 18.4587C178.409 18.1948 178.937 17.8136 179.347 17.3151L180.051 18.0408C179.538 18.6712 178.885 19.1624 178.094 19.5142C177.302 19.8661 176.459 20.042 175.565 20.042ZM179.655 13.5107C179.64 12.6458 179.435 11.9054 179.039 11.2897C178.643 10.6593 178.123 10.1828 177.478 9.86028C176.848 9.52309 176.159 9.35449 175.411 9.35449C174.692 9.35449 174.011 9.51576 173.366 9.83829C172.735 10.1608 172.208 10.6373 171.782 11.2677C171.357 11.8834 171.108 12.6311 171.035 13.5107H179.655Z" fill="white"/>
<path d="M159.232 13.1809C159.232 12.008 158.968 11.0844 158.44 10.41C157.927 9.73566 157.157 9.39847 156.131 9.39847C155.105 9.39847 154.306 9.743 153.734 10.432C153.162 11.1064 152.876 12.0227 152.876 13.1809V19.8221H151.535V8.3869H152.876V10.2561C153.17 9.65503 153.617 9.15658 154.218 8.76074C154.819 8.36491 155.567 8.16699 156.461 8.16699C157.341 8.16699 158.103 8.37957 158.748 8.80472C159.408 9.21522 159.892 9.83829 160.199 10.6739C160.478 9.97023 160.947 9.37648 161.607 8.89269C162.267 8.40889 163.11 8.16699 164.136 8.16699C165.382 8.16699 166.379 8.57749 167.126 9.39847C167.889 10.2048 168.27 11.4216 168.27 13.0489V19.8221H166.929V13.1809C166.929 12.008 166.665 11.0844 166.137 10.41C165.624 9.73566 164.854 9.39847 163.828 9.39847C162.802 9.39847 162.003 9.743 161.431 10.432C160.859 11.1064 160.573 12.0227 160.573 13.1809V19.8221H159.232V13.1809Z" fill="white"/>
<path d="M143.512 20.042C142.529 20.042 141.606 19.8148 140.741 19.3603C139.876 18.8911 139.172 18.2094 138.63 17.3151C138.102 16.4209 137.838 15.3506 137.838 14.1045C137.838 12.8584 138.102 11.7881 138.63 10.8938C139.172 9.99955 139.876 9.32517 140.741 8.8707C141.606 8.40156 142.529 8.16699 143.512 8.16699C144.552 8.16699 145.491 8.42355 146.326 8.93667C147.162 9.43513 147.748 10.0655 148.086 10.8279H148.152V8.3869H149.493V19.8221H148.152V17.3811H148.086C147.748 18.1435 147.162 18.7812 146.326 19.2943C145.491 19.7928 144.552 20.042 143.512 20.042ZM139.179 14.1045C139.179 15.1161 139.392 15.9737 139.817 16.6774C140.242 17.3811 140.799 17.9162 141.488 18.2827C142.177 18.6346 142.91 18.8105 143.687 18.8105C144.464 18.8105 145.198 18.6346 145.887 18.2827C146.576 17.9162 147.133 17.3811 147.558 16.6774C147.983 15.959 148.196 15.1014 148.196 14.1045C148.196 13.1076 147.983 12.2573 147.558 11.5536C147.133 10.8352 146.576 10.3001 145.887 9.94824C145.198 9.58173 144.464 9.39847 143.687 9.39847C142.91 9.39847 142.177 9.58173 141.488 9.94824C140.799 10.3001 140.242 10.8279 139.817 11.5316C139.392 12.2353 139.179 13.0929 139.179 14.1045Z" fill="white"/>
<path d="M126.507 8.3869H127.849V10.3881C128.171 9.75766 128.662 9.22988 129.322 8.80472C129.997 8.37957 130.825 8.16699 131.807 8.16699C132.657 8.16699 133.42 8.35025 134.094 8.71676C134.783 9.06861 135.326 9.61105 135.722 10.3441C136.132 11.0771 136.337 11.9934 136.337 13.0929V19.8221H134.996V13.2469C134.996 11.9861 134.666 11.0331 134.006 10.3881C133.347 9.72833 132.496 9.39847 131.455 9.39847C130.414 9.39847 129.549 9.72833 128.86 10.3881C128.186 11.0478 127.849 12.0007 127.849 13.2469V19.8221H126.507V8.3869Z" fill="white"/>
<path d="M119.159 8.3869H120.501V11.0478C120.75 10.1975 121.182 9.50843 121.798 8.98065C122.428 8.43821 123.235 8.16699 124.217 8.16699C124.466 8.16699 124.664 8.18898 124.811 8.23297V9.48644C124.635 9.44246 124.444 9.42047 124.239 9.42047C123.535 9.42047 122.898 9.59639 122.326 9.94824C121.769 10.3001 121.322 10.8059 120.984 11.4656C120.662 12.1253 120.501 12.8877 120.501 13.7526V19.8221H119.159V8.3869Z" fill="white"/>
<path d="M112.341 20.042C111.3 20.042 110.34 19.8074 109.461 19.3383C108.581 18.8692 107.87 18.1874 107.327 17.2931C106.8 16.3842 106.536 15.314 106.536 14.0825C106.536 12.8657 106.8 11.8101 107.327 10.9158C107.855 10.0215 108.552 9.33983 109.417 8.8707C110.281 8.40156 111.205 8.16699 112.187 8.16699C113.126 8.16699 114.013 8.3869 114.848 8.82672C115.684 9.25187 116.358 9.89693 116.871 10.7619C117.399 11.6122 117.663 12.6458 117.663 13.8626C117.663 14.1851 117.656 14.427 117.641 14.5883H107.811C107.885 15.4826 108.134 16.2523 108.559 16.8973C108.999 17.5424 109.563 18.0335 110.252 18.3707C110.941 18.6932 111.689 18.8545 112.495 18.8545C113.228 18.8545 113.91 18.7225 114.54 18.4587C115.185 18.1948 115.713 17.8136 116.124 17.3151L116.827 18.0408C116.314 18.6712 115.662 19.1624 114.87 19.5142C114.079 19.8661 113.236 20.042 112.341 20.042ZM116.432 13.5107C116.417 12.6458 116.212 11.9054 115.816 11.2897C115.42 10.6593 114.9 10.1828 114.254 9.86028C113.624 9.52309 112.935 9.35449 112.187 9.35449C111.469 9.35449 110.787 9.51576 110.142 9.83829C109.512 10.1608 108.984 10.6373 108.559 11.2677C108.134 11.8834 107.885 12.6311 107.811 13.5107H116.432Z" fill="white"/>
<path d="M101.441 20.0404C100.34 20.0404 99.4171 19.7692 98.6724 19.2269C97.9433 18.6846 97.4857 17.9444 97.2996 17.0063L98.5328 16.6765C98.719 17.3801 99.068 17.9224 99.5799 18.3035C100.092 18.6846 100.712 18.8751 101.441 18.8751C102.155 18.8751 102.768 18.7066 103.28 18.3694C103.792 18.0177 104.048 17.5047 104.048 16.8304C104.048 16.2881 103.861 15.8557 103.489 15.5333C103.117 15.1961 102.496 14.8517 101.628 14.4999L100.697 14.1481C98.8198 13.4299 97.8813 12.3893 97.8813 11.0261C97.8813 10.1907 98.2148 9.50911 98.8819 8.98145C99.5489 8.43913 100.387 8.16797 101.395 8.16797C102.295 8.16797 103.063 8.38783 103.699 8.82755C104.35 9.25261 104.784 9.83157 105.002 10.5644L103.861 10.9162C103.427 9.84623 102.62 9.31124 101.441 9.31124C100.821 9.31124 100.301 9.46514 99.8824 9.77294C99.4791 10.0661 99.2774 10.4838 99.2774 11.0261C99.2774 11.4659 99.4326 11.8543 99.7428 12.1914C100.053 12.5285 100.557 12.829 101.255 13.0928L102.07 13.4006C103.249 13.855 104.11 14.324 104.653 14.8077C105.196 15.2914 105.467 15.9656 105.467 16.8304C105.467 17.8711 105.071 18.6699 104.28 19.2269C103.489 19.7692 102.543 20.0404 101.441 20.0404Z" fill="white"/>
<path d="M95.978 19.8219H94.6366V17.8207C94.3141 18.4511 93.8156 18.9789 93.1412 19.4041C92.4815 19.8292 91.6605 20.0418 90.6783 20.0418C89.8279 20.0418 89.0583 19.8659 88.3692 19.514C87.6948 19.1475 87.1524 18.5978 86.7419 17.8647C86.3461 17.1317 86.1482 16.2154 86.1482 15.1159V8.38672H87.4896V14.9619C87.4896 16.2228 87.8195 17.183 88.4792 17.8427C89.1389 18.4878 89.9892 18.8103 91.0301 18.8103C92.071 18.8103 92.9286 18.4805 93.603 17.8207C94.2921 17.161 94.6366 16.2081 94.6366 14.9619V8.38672H95.978V19.8219Z" fill="white"/>
<circle cx="12.3452" cy="12" r="12" fill="white"/>
<path fill-rule="evenodd" clip-rule="evenodd" d="M16.7853 16.9947L12.3422 13.804L7.9052 16.9997V7.83301H16.7853V16.9947Z" fill="black"/>
</g>
<defs>
<clipPath id="clip0_10078_2254">
<rect width="190" height="24" fill="white"/>
</clipPath>
</defs>
</svg>
